<svg class="svg-icon" style="width: 1em;height: 1em;vertical-align: middle;fill: currentColor;overflow: hidden;" viewBox="0 0 1024 1024" version="1.1" xmlns="http://www.w3.org/2000/svg"><path d="M678.4 1024H392.533333C320 1024 256 960 256 887.466667s64-136.533333 136.533333-136.533334h285.866667c76.8 0 136.533333 64 136.533333 136.533334S755.2 1024 678.4 1024z m-285.866667-192c-29.866667 0-51.2 25.6-51.2 51.2S366.933333 938.666667 392.533333 938.666667h285.866667c29.866667 0 51.2-25.6 51.2-51.2s-25.6-51.2-51.2-51.2l-285.866667-4.266667z"  /><path d="M849.066667 938.666667c-38.4 0-76.8-17.066667-102.4-51.2-25.6-29.866667-34.133333-72.533333-25.6-110.933334l59.733333-503.466666C789.333333 213.333333 840.533333 170.666667 900.266667 170.666667c34.133333 0 72.533333 17.066667 93.866666 42.666666s34.133333 64 29.866667 98.133334l-38.4 507.733333c-12.8 72.533333-68.266667 119.466667-136.533333 119.466667z m51.2-682.666667c-17.066667 0-34.133333 12.8-38.4 29.866667l-59.733334 503.466666c-4.266667 17.066667 0 34.133333 8.533334 42.666667s21.333333 17.066667 38.4 17.066667c25.6 0 42.666667-17.066667 46.933333-42.666667l42.666667-503.466667c4.266667-17.066667-4.266667-29.866667-8.533334-34.133333-4.266667-4.266667-12.8-12.8-29.866666-12.8zM665.6 298.666667c-81.066667 0-149.333333-68.266667-149.333333-149.333334S584.533333 0 665.6 0s149.333333 68.266667 149.333333 149.333333S746.666667 298.666667 665.6 298.666667z m0-213.333334c-34.133333 0-64 29.866667-64 64S631.466667 213.333333 665.6 213.333333s64-29.866667 64-64S699.733333 85.333333 665.6 85.333333z"  /><path d="M98.133333 998.4c-29.866667 0-51.2-12.8-68.266666-34.133333l-12.8-17.066667c-21.333333-29.866667-21.333333-68.266667 0-98.133333l128-183.466667c29.866667-42.666667 76.8-68.266667 128-72.533333l209.066666-12.8c38.4-4.266667 68.266667-29.866667 76.8-68.266667l25.6-123.733333c8.533333-38.4 42.666667-68.266667 85.333334-68.266667h89.6c25.6 0 46.933333 8.533333 64 29.866667 17.066667 17.066667 25.6 42.666667 21.333333 68.266666l-29.866667 264.533334c-8.533333 85.333333-81.066667 153.6-170.666666 153.6h-341.333334c-12.8 0-25.6 4.266667-34.133333 17.066666-12.8 17.066667-34.133333 38.4-51.2 59.733334-21.333333 21.333333-38.4 46.933333-55.466667 64-17.066667 12.8-38.4 21.333333-64 21.333333zM669.866667 405.333333l-29.866667 123.733334c-17.066667 72.533333-81.066667 128-157.866667 132.266666l-209.066666 12.8c-25.6 0-51.2 12.8-64 34.133334L85.333333 896l12.8 17.066667c17.066667-17.066667 34.133333-42.666667 55.466667-64 17.066667-21.333333 38.4-42.666667 51.2-59.733334 25.6-29.866667 59.733333-42.666667 98.133333-42.666666h341.333334c42.666667 0 81.066667-34.133333 85.333333-76.8l29.866667-264.533334h-89.6z"  /></svg>