<svg class="svg-icon" style="width: 1em;height: 1em;vertical-align: middle;fill: currentColor;overflow: hidden;" viewBox="0 0 1024 1024" version="1.1" xmlns="http://www.w3.org/2000/svg"><path d="M853.333333 392.106667l-98.133333 512a42.666667 42.666667 0 0 1-42.666667 34.56H298.666667a85.333333 85.333333 0 0 1-85.333334-62.72l-42.666666-155.306667a42.666667 42.666667 0 0 1 10.666666-42.666667l20.053334-19.626666a42.666667 42.666667 0 0 1 36.266666-12.373334l341.333334 48.64-5.12-32a170.666667 170.666667 0 0 1 26.453333-122.88l120.32-180.48a42.666667 42.666667 0 0 1 36.266667-17.92H810.666667a42.666667 42.666667 0 0 1 42.666666 50.773334zM810.666667 85.333333h-85.333334a42.666667 42.666667 0 0 0-42.666666 52.906667l21.333333 85.333333a42.666667 42.666667 0 0 0 42.666667 32.426667H810.666667a42.666667 42.666667 0 0 0 42.666666-42.666667V128a42.666667 42.666667 0 0 0-42.666666-42.666667z"  /></svg>